<?xml version="1.0" encoding="UTF-8" standalone="no"?><!DOCTYPE svg PUBLIC "-//W3C//DTD SVG 1.1//EN" "http://www.w3.org/Graphics/SVG/1.1/DTD/svg11.dtd"><svg width="100%" height="100%" viewBox="0 0 200 200" version="1.1" xmlns="http://www.w3.org/2000/svg" xmlns:xlink="http://www.w3.org/1999/xlink" xml:space="preserve" xmlns:serif="http://www.serif.com/" style="fill-rule:evenodd;clip-rule:evenodd;stroke-linecap:round;stroke-linejoin:round;stroke-miterlimit:1.5;"><circle cx="99.395" cy="100.605" r="59.147" style="fill:url(#_Linear1);stroke:#e0a100;stroke-width:6.23px;"/><g><path d="M93.366,94.379c0,-3.436 -2.79,-6.226 -6.226,-6.226l-31.13,0c-3.436,0 -6.226,2.79 -6.226,6.226l0,12.452c0,3.436 2.79,6.226 6.226,6.226l31.13,-0c3.436,-0 6.226,-2.79 6.226,-6.226l0,-12.452Z"/><path d="M149.006,94.379c-0,-3.436 -2.79,-6.226 -6.226,-6.226l-31.13,0c-3.436,0 -6.226,2.79 -6.226,6.226l0,12.452c0,3.436 2.79,6.226 6.226,6.226l31.13,-0c3.436,-0 6.226,-2.79 6.226,-6.226l-0,-12.452Z"/></g><path d="M163.061,91.266c0,-1.718 -1.395,-3.113 -3.113,-3.113l-122.221,0c-1.719,0 -3.113,1.395 -3.113,3.113c-0,1.718 1.394,3.113 3.113,3.113l122.221,-0c1.718,-0 3.113,-1.395 3.113,-3.113Z"/><g><path d="M98.818,26.529l0,-19.322" style="fill:none;stroke:#e0a100;stroke-width:9.34px;"/><g><path d="M25.319,100.605l-19.322,-0" style="fill:none;stroke:#e0a100;stroke-width:9.34px;"/><path d="M192.793,100.605l-19.322,-0" style="fill:none;stroke:#e0a100;stroke-width:9.34px;"/></g><path d="M98.818,194.003l0,-19.322" style="fill:none;stroke:#e0a100;stroke-width:9.34px;"/><path d="M46.607,48.633l-13.662,-13.662" style="fill:none;stroke:#e0a100;stroke-width:9.34px;"/><g><path d="M47.015,152.985l-13.662,13.662" style="fill:none;stroke:#e0a100;stroke-width:9.34px;"/><path d="M165.437,34.563l-13.662,13.662" style="fill:none;stroke:#e0a100;stroke-width:9.34px;"/></g><path d="M165.029,167.055l-13.662,-13.662" style="fill:none;stroke:#e0a100;stroke-width:9.34px;"/></g><defs><linearGradient id="_Linear1" x1="0" y1="0" x2="1" y2="0" gradientUnits="userSpaceOnUse" gradientTransform="matrix(7.24336e-15,-118.293,118.293,7.24336e-15,99.3951,159.751)"><stop offset="0" style="stop-color:#ffab2c;stop-opacity:1"/><stop offset="1" style="stop-color:#ffe660;stop-opacity:1"/></linearGradient></defs></svg>